<svg width="25" height="25" viewBox="0 0 25 25" fill="none" xmlns="http://www.w3.org/2000/svg">
<path d="M17.8694 13.2263C17.8598 11.5953 18.5988 10.3661 20.0911 9.4597C19.2564 8.26396 17.9937 7.6063 16.3293 7.47955C14.7533 7.3552 13.029 8.39788 12.3977 8.39788C11.7304 8.39788 10.2047 7.5226 9.00415 7.5226C6.52658 7.56086 3.89355 9.49796 3.89355 13.4391C3.89355 14.6038 4.1064 15.8067 4.53208 17.0455C5.10125 18.6765 7.15314 22.6726 9.29352 22.6081C10.4127 22.5818 11.2043 21.8141 12.6607 21.8141C14.0741 21.8141 14.8059 22.6081 16.0542 22.6081C18.2138 22.577 20.0695 18.9443 20.61 17.3085C17.7139 15.943 17.8694 13.31 17.8694 13.2263ZM15.3559 5.93226C16.5684 4.49259 16.4584 3.18206 16.4225 2.71094C15.3511 2.77312 14.1124 3.44034 13.4069 4.26062C12.6296 5.14068 12.1729 6.22881 12.2709 7.45564C13.4284 7.54412 14.4854 6.94864 15.3559 5.93226Z" fill="white"/>
</svg>
