<svg width="25" height="25" viewBox="0 0 25 25" fill="none" xmlns="http://www.w3.org/2000/svg">
<path d="M17.4433 18.8117L4.97473 6.34313C4.69072 6.05912 4.69811 5.5807 4.99103 5.28778C5.28395 4.99486 5.76237 4.98747 6.04638 5.27148L18.515 17.7401C18.799 18.0241 18.7916 18.5025 18.4987 18.7954C18.2058 19.0884 17.7273 19.0957 17.4433 18.8117Z" fill="#218068"/>
<path d="M18.8657 6.42796L6.00591 19.2878C5.713 19.5807 5.22718 19.5807 4.93426 19.2878C4.64135 18.9949 4.64135 18.509 4.93426 18.2161L17.7941 5.35631C18.087 5.06339 18.5728 5.06339 18.8657 5.35631C19.1587 5.64923 19.1587 6.13504 18.8657 6.42796Z" fill="#218068"/>
</svg>
