<svg width="68" height="69" viewBox="0 0 68 69" fill="none" xmlns="http://www.w3.org/2000/svg">
<g clip-path="url(#clip0_967_35430)">
<path d="M59.0248 30.4477L61.9677 33.3906C63.2138 34.6367 63.2138 36.6517 61.9677 37.8845L36.2106 63.6549C34.9645 64.901 32.9495 64.901 31.7167 63.6549L5.94629 37.8845C4.70019 36.6384 4.70019 34.6235 5.94629 33.3906L8.88921 30.4477C10.1486 29.1884 12.2033 29.2149 13.4361 30.5007L28.6545 46.4747V8.37586C28.6545 6.61277 30.0729 5.19434 31.836 5.19434H36.078C37.8411 5.19434 39.2596 6.61277 39.2596 8.37586V46.4747L54.4779 30.5007C55.7107 29.2016 57.7654 29.1751 59.0248 30.4477Z" fill="#FFC501"/>
</g>
<defs>
<clipPath id="clip0_967_35430">
<rect width="67.8726" height="67.8726" fill="white" transform="translate(0.0205078 0.952148)"/>
</clipPath>
</defs>
</svg>
