<svg width="23" height="17" viewBox="0 0 23 17" fill="none" xmlns="http://www.w3.org/2000/svg">
<path d="M2.58738 14.6979C2.20802 14.8074 1.80026 14.5756 1.68791 14.1865L0.317863 9.44146C0.205519 9.05237 0.42695 8.63888 0.806314 8.52934C1.18568 8.41981 1.59344 8.65163 1.70578 9.04072L3.07583 13.7857C3.18817 14.1748 2.96674 14.5883 2.58738 14.6979Z" fill="#FFC501"/>
<path d="M22.0182 9.0875C21.6388 9.19704 21.2311 8.96521 21.1187 8.57612L19.7487 3.83111C19.6363 3.44202 19.8578 3.02852 20.2371 2.91898C20.6165 2.80945 21.0243 3.04128 21.1366 3.43037L22.5067 8.17538C22.619 8.56447 22.3976 8.97797 22.0182 9.0875Z" fill="#FFC501"/>
<path fill-rule="evenodd" clip-rule="evenodd" d="M12.9409 9.13814L12.5299 7.71463L9.88361 8.47871L9.26708 6.34345C8.41765 3.40155 6.35198 3.3297 4.76975 3.78654C3.18753 4.24339 1.47807 5.40524 2.3275 8.34715L3.97156 14.0412C4.82099 16.9831 6.88667 17.0549 8.46889 16.5981C10.0511 16.1412 11.7606 14.9794 10.9111 12.0375L10.2946 9.90221L12.9409 9.13814Z" fill="#FFC501"/>
<path d="M14.3556 1.01877C12.7734 1.47561 11.0639 2.63747 11.9134 5.57938L12.5299 7.71463L12.9409 9.13814L13.5574 11.2734C14.4069 14.2153 16.4725 14.2871 18.0548 13.8303C19.637 13.3735 21.3464 12.2116 20.497 9.26969L18.853 3.57568C18.0035 0.633769 15.9379 0.561923 14.3556 1.01877Z" fill="#FFC501"/>
</svg>
