<svg width="21" height="21" viewBox="0 0 21 21" fill="none" xmlns="http://www.w3.org/2000/svg">
<g clip-path="url(#clip0_12402_19655)">
<path d="M11.8455 1.82746L12.328 3.18345C12.4 3.38553 12.5135 3.57027 12.6612 3.72573C12.809 3.8812 12.9878 4.00394 13.1859 4.08602C13.3841 4.1681 13.5973 4.20769 13.8117 4.20224C14.0261 4.1968 14.237 4.14642 14.4308 4.05439L15.7309 3.43682C17.0336 2.81758 18.3929 4.1769 17.7737 5.47955L17.1561 6.7797C17.0638 6.97341 17.0132 7.18434 17.0076 7.39884C17.002 7.61334 17.0416 7.82662 17.1237 8.02486C17.2058 8.2231 17.3286 8.40188 17.4843 8.54961C17.6399 8.69735 17.8248 8.81074 18.027 8.88245L19.383 9.36417C20.7415 9.84756 20.7415 11.7694 19.383 12.2537L18.027 12.7362C17.8249 12.8082 17.6402 12.9217 17.4847 13.0694C17.3293 13.2172 17.2065 13.396 17.1245 13.5941C17.0424 13.7923 17.0028 14.0055 17.0082 14.2199C17.0137 14.4343 17.064 14.6452 17.1561 14.839L17.7737 16.1391C18.3929 17.4418 17.0336 18.8011 15.7309 18.1819L14.4308 17.5643C14.2371 17.4721 14.0262 17.4216 13.8118 17.416C13.5974 17.4104 13.3842 17.4499 13.186 17.532C12.9878 17.614 12.809 17.7367 12.6612 17.8921C12.5134 18.0476 12.3999 18.2323 12.328 18.4344L11.8455 19.7912C11.3621 21.1497 9.44019 21.1497 8.9568 19.7912L8.47424 18.4344C8.40223 18.2324 8.28865 18.0477 8.14084 17.8924C7.99303 17.737 7.81427 17.6143 7.61611 17.5323C7.41796 17.4503 7.2048 17.4108 6.99042 17.4163C6.77604 17.4218 6.56519 17.4722 6.3715 17.5643L5.07135 18.181C3.7687 18.8011 2.40937 17.4418 3.02861 16.1391L3.64618 14.839C3.7385 14.6451 3.7891 14.4341 3.79469 14.2195C3.80029 14.0049 3.76076 13.7915 3.67866 13.5931C3.59656 13.3947 3.47373 13.2158 3.3181 13.0679C3.16248 12.92 2.97754 12.8065 2.77525 12.7346L1.41926 12.2528C0.0607679 11.7694 0.0607679 9.84673 1.41926 9.36334L2.77525 8.88161C2.97754 8.80995 3.16254 8.69662 3.31828 8.54895C3.47402 8.40129 3.59703 8.22258 3.67936 8.02439C3.76169 7.82619 3.80149 7.61292 3.79621 7.39837C3.79093 7.18382 3.74067 6.97277 3.64868 6.77887L3.03028 5.47872C2.41104 4.17523 3.77036 2.81591 5.07385 3.43515L6.374 4.05355C6.56765 4.14547 6.77842 4.19576 6.99271 4.2012C7.207 4.20663 7.42004 4.16707 7.6181 4.08508C7.81616 4.0031 7.99483 3.8805 8.14258 3.7252C8.29033 3.5699 8.40388 3.38535 8.47591 3.18345L8.95763 1.82746C9.43936 0.468971 11.3621 0.468971 11.8455 1.82746Z" fill="#FFC501"/>
</g>
<defs>
<clipPath id="clip0_12402_19655">
<rect width="20.0023" height="20.0023" fill="white" transform="translate(0.400391 0.808594)"/>
</clipPath>
</defs>
</svg>
