<svg width="157" height="66" viewBox="0 0 157 66" fill="none" xmlns="http://www.w3.org/2000/svg">
<rect x="0.673828" y="0.560547" width="65.3264" height="64.5394" rx="17" fill="white" fill-opacity="0.15"/>
<path d="M41.1961 36.4992C40.5683 38.2561 39.3191 39.7121 37.6781 40.6011C36.0307 41.4896 34.1105 41.7481 32.2754 41.3285C30.4695 40.956 28.839 39.9843 27.6508 38.5725C26.4625 37.1606 25.7869 35.3923 25.7345 33.557C25.654 31.6899 26.2531 29.8623 27.4213 28.4113C28.5896 26.9603 30.2481 25.9836 32.0911 25.6616C35.8367 24.9763 39.39 23.5442 42.5382 21.4467C46.5041 18.7218 46.6308 12.857 42.149 11.0938C34.9075 8.24497 25.4706 8.44348 17.6774 15.1072C14.2914 18.056 11.8225 21.9097 10.5581 26.2199C9.28873 30.5536 9.2672 35.1655 10.4959 39.5312C11.7284 43.9175 14.1541 47.8869 17.5033 50.9982C20.8525 54.1095 24.994 56.2407 29.4673 57.1548L28.9718 57.2L35.2751 57.8304L40.4206 56.8326C43.8104 55.9314 46.9522 54.2923 49.6209 52.0326C59.1918 43.9488 59.8188 31.0583 55.0794 22.7134C54.4468 21.5996 52.9305 21.0957 51.7001 21.4624C51.5439 21.5089 51.5247 21.5166 51.3685 21.5631C45.1943 23.4016 43.5836 30.0236 41.1995 36.4994" fill="white"/>
<path d="M88.1555 47.3801C84.7221 47.3801 81.8388 46.2967 79.5055 44.1301C77.1721 41.9301 76.0055 38.6967 76.0055 34.4301V34.3301C76.0055 30.5301 77.1221 27.5301 79.3555 25.3301C81.6221 23.0967 84.5555 21.9801 88.1555 21.9801C91.7555 21.9801 94.6888 23.0801 96.9555 25.2801C99.2221 27.4801 100.355 30.4801 100.355 34.2801V34.3801C100.355 38.6801 99.1888 41.9301 96.8555 44.1301C94.5221 46.2967 91.6221 47.3801 88.1555 47.3801ZM88.1555 43.2301C91.9888 43.2301 93.9055 40.5301 93.9055 35.1301V33.3301C93.9055 31.0634 93.3888 29.3134 92.3555 28.0801C91.3221 26.8467 89.9221 26.2301 88.1555 26.2301C86.3888 26.2301 84.9888 26.8467 83.9555 28.0801C82.9555 29.3134 82.4555 31.0634 82.4555 33.3301V35.1301C82.4555 40.5301 84.3555 43.2301 88.1555 43.2301ZM104.154 46.8301V22.5801H109.204C109.437 23.0801 109.637 23.6967 109.804 24.4301C110.204 25.7301 110.404 27.2134 110.404 28.8801V30.2301C110.904 27.3967 111.754 25.3634 112.954 24.1301C114.154 22.8634 115.521 22.2301 117.054 22.2301C118.121 22.2301 118.887 22.6134 119.354 23.3801V28.0301C116.354 27.9634 114.121 28.5967 112.654 29.9301C111.221 31.2634 110.504 33.5801 110.504 36.8801V46.8301H104.154ZM125.863 19.9301C124.863 19.9301 124.013 19.5967 123.313 18.9301C122.613 18.2301 122.263 17.3801 122.263 16.3801C122.263 15.3801 122.613 14.5301 123.313 13.8301C124.013 13.1301 124.863 12.7801 125.863 12.7801C126.897 12.7801 127.763 13.1301 128.463 13.8301C129.163 14.5301 129.513 15.3801 129.513 16.3801C129.513 17.3801 129.163 18.2301 128.463 18.9301C127.763 19.5967 126.897 19.9301 125.863 19.9301ZM122.713 46.8301V22.5801H129.063V46.8301H122.713ZM134.086 22.5801H152.986V28.3801L138.936 42.4301H152.986V46.8301H133.236V41.2301L147.086 27.2301H134.086V22.5801Z" fill="white"/>
</svg>
