<svg width="25" height="26" viewBox="0 0 25 26" fill="none" xmlns="http://www.w3.org/2000/svg">
<path d="M21.9692 8.70695H3.78267C3.36843 8.70695 3.0249 8.36343 3.0249 7.94918C3.0249 7.53493 3.36843 7.19141 3.78267 7.19141H21.9692C22.3835 7.19141 22.727 7.53493 22.727 7.94918C22.727 8.36343 22.3835 8.70695 21.9692 8.70695Z" fill="white"/>
<path d="M21.9692 13.7597H3.78267C3.36843 13.7597 3.0249 13.4162 3.0249 13.0019C3.0249 12.5877 3.36843 12.2441 3.78267 12.2441H21.9692C22.3835 12.2441 22.727 12.5877 22.727 13.0019C22.727 13.4162 22.3835 13.7597 21.9692 13.7597Z" fill="white"/>
<path d="M21.9692 18.8105H3.78267C3.36843 18.8105 3.0249 18.4669 3.0249 18.0527C3.0249 17.6384 3.36843 17.2949 3.78267 17.2949H21.9692C22.3835 17.2949 22.727 17.6384 22.727 18.0527C22.727 18.4669 22.3835 18.8105 21.9692 18.8105Z" fill="white"/>
</svg>
