<svg width="137" height="63" viewBox="0 0 137 63" fill="none" xmlns="http://www.w3.org/2000/svg">
<rect x="0.0517578" y="0.429688" width="63.2256" height="62.4639" rx="14" fill="#FFC501"/>
<path d="M39.2707 35.2137C38.6631 36.9141 37.454 38.3233 35.8658 39.1837C34.2714 40.0436 32.413 40.2938 30.6368 39.8877C28.8891 39.5271 27.311 38.5867 26.1609 37.2203C25.0109 35.8538 24.357 34.1424 24.3063 32.3661C24.2284 30.5591 24.8082 28.7902 25.9389 27.3859C27.0695 25.9815 28.6748 25.0363 30.4585 24.7246C34.0837 24.0614 37.5227 22.6753 40.5697 20.6453C44.408 18.008 44.5306 12.3317 40.1929 10.6253C33.1843 7.86805 24.0509 8.06018 16.5083 14.5096C13.2312 17.3636 10.8417 21.0933 9.61796 25.2649C8.38941 29.4593 8.36857 33.9228 9.5578 38.1482C10.7506 42.3934 13.0983 46.2352 16.3398 49.2464C19.5813 52.2576 23.5897 54.3203 27.9191 55.205L27.4395 55.2488L33.5401 55.8589L38.5201 54.8931C41.8009 54.021 44.8417 52.4346 47.4246 50.2476C56.6876 42.4237 57.2945 29.9477 52.7075 21.8712C52.0952 20.7932 50.6277 20.3055 49.4369 20.6604C49.2858 20.7055 49.2671 20.7128 49.1159 20.7579C43.1403 22.5372 41.5814 28.9463 39.274 35.2138" fill="black"/>
<path d="M82.8906 42.1202C80.0311 42.1202 77.6298 41.2179 75.6864 39.4134C73.7431 37.5811 72.7715 34.8883 72.7715 31.3348V31.2515C72.7715 28.0866 73.7015 25.5881 75.5615 23.7558C77.4493 21.8958 79.8923 20.9658 82.8906 20.9658C85.8889 20.9658 88.3319 21.8819 90.2197 23.7142C92.1075 25.5464 93.0514 28.045 93.0514 31.2098V31.2931C93.0514 34.8744 92.0797 37.5811 90.1364 39.4134C88.1931 41.2179 85.7778 42.1202 82.8906 42.1202ZM82.8906 38.6638C86.0832 38.6638 87.6795 36.4151 87.6795 31.9177V30.4186C87.6795 28.5308 87.2492 27.0733 86.3886 26.0461C85.528 25.019 84.362 24.5054 82.8906 24.5054C81.4192 24.5054 80.2532 25.019 79.3926 26.0461C78.5598 27.0733 78.1434 28.5308 78.1434 30.4186V31.9177C78.1434 36.4151 79.7258 38.6638 82.8906 38.6638ZM96.2149 41.6621V21.4655H100.421C100.615 21.8819 100.782 22.3955 100.921 23.0062C101.254 24.0889 101.42 25.3243 101.42 26.7124V27.8368C101.837 25.477 102.545 23.7836 103.544 22.7564C104.543 21.7014 105.682 21.174 106.959 21.174C107.847 21.174 108.486 21.4932 108.874 22.1317V26.0045C106.376 25.949 104.516 26.4765 103.294 27.5869C102.1 28.6974 101.504 30.6268 101.504 33.3752V41.6621H96.2149ZM114.296 19.2584C113.463 19.2584 112.755 18.9808 112.172 18.4256C111.589 17.8426 111.297 17.1346 111.297 16.3018C111.297 15.4689 111.589 14.761 112.172 14.178C112.755 13.595 113.463 13.3035 114.296 13.3035C115.156 13.3035 115.878 13.595 116.461 14.178C117.044 14.761 117.336 15.4689 117.336 16.3018C117.336 17.1346 117.044 17.8426 116.461 18.4256C115.878 18.9808 115.156 19.2584 114.296 19.2584ZM111.672 41.6621V21.4655H116.961V41.6621H111.672ZM121.144 21.4655H136.884V26.296L125.183 37.9976H136.884V41.6621H120.436V36.9981L131.971 25.3382H121.144V21.4655Z" fill="white"/>
</svg>
