<svg width="26" height="25" viewBox="0 0 26 25" fill="none" xmlns="http://www.w3.org/2000/svg">
<path d="M13.5712 12.1558L3.61914 22.4672L3.62061 22.4731C3.78108 23.0365 4.12194 23.5317 4.59089 23.8827C5.05985 24.2338 5.63102 24.4213 6.2168 24.4165C6.71404 24.4165 7.18047 24.2845 7.5809 24.0557L7.61317 24.0366L18.8149 17.728L13.5712 12.1558Z" fill="#EA4335"/>
<path d="M23.641 10.3991L23.6307 10.3933L18.7948 7.65625L13.3457 12.3881L18.8138 17.7242L23.6249 15.0151C24.4683 14.5706 25.0403 13.7038 25.0403 12.702C25.0403 11.709 24.4756 10.845 23.641 10.3991Z" fill="#FBBC04"/>
<path d="M3.61731 2.89844C3.55864 3.11259 3.52637 3.33847 3.52637 3.57315V21.7905C3.52637 22.0252 3.55717 22.2525 3.61731 22.4652L13.9141 12.4193L3.61731 2.89844Z" fill="#4285F4"/>
<path d="M13.6446 12.6815L18.7959 7.65483L7.60437 1.32276C7.18343 1.07653 6.70447 0.946922 6.2168 0.947266C4.97297 0.947266 3.92276 1.77306 3.61914 2.89368V2.89661L13.6446 12.6815Z" fill="#34A853"/>
</svg>
