<svg width="102" height="115" viewBox="0 0 102 115" fill="none" xmlns="http://www.w3.org/2000/svg">
<g clip-path="url(#clip0_967_34415)">
<path d="M62.3936 87.1809L63.144 86.9579C63.6565 86.8011 64.0177 86.4481 64.0912 86.0179L67.5252 55.9774C67.5814 55.6432 67.4668 55.292 67.1987 55.0007L60.7674 47.9736C60.4928 47.6695 60.0776 47.4575 59.6191 47.3761L36.3529 32.1354C35.8988 32.0582 35.4447 32.1225 35.0814 32.3131L26.6737 36.7594C26.3212 36.9457 26.0855 37.2391 26.0314 37.5797L19.0271 78.5815C18.9492 79.0246 19.1828 79.4855 19.6391 79.8022L19.7926 79.9117C20.8047 80.6138 20.5495 81.8326 19.3277 82.1108C18.9493 82.199 18.6465 82.3873 18.4541 82.6402C18.3524 82.775 18.2854 82.9247 18.253 83.0877L16.19 95.1867C16.0689 95.8974 16.737 96.6041 17.6864 96.7562C24.8334 97.8939 52.2364 102.248 59.3121 103.376C60.2376 103.524 61.0766 103.081 61.1999 102.38L63.2175 90.9778C63.2976 90.5452 63.0748 90.0929 62.6401 89.7738L62.0281 89.3247C61.0961 88.6432 61.2951 87.5126 62.3979 87.1761L62.3936 87.1809ZM44.4017 55.02C42.7041 54.7351 41.5603 53.1438 41.8478 51.4604C42.1354 49.777 43.7421 48.6462 45.4419 48.931C47.1373 49.2158 48.2834 50.8071 47.9958 52.4906C47.7082 54.174 46.0971 55.3027 44.4017 55.02Z" fill="#F58750" stroke="black" stroke-width="2.23761" stroke-linecap="round" stroke-linejoin="round"/>
<path d="M59.2184 87.7331L57.6182 87.4629" stroke="black" stroke-width="2.23761" stroke-linecap="round" stroke-linejoin="round"/>
<path d="M54.6471 86.9615L26.418 82.2002" stroke="black" stroke-width="2.23761" stroke-linecap="round" stroke-linejoin="round"/>
<path d="M24.9333 81.9492L23.333 81.6797" stroke="black" stroke-width="2.23761" stroke-linecap="round" stroke-linejoin="round"/>
<path d="M75.7509 80.3887L76.4537 80.0444C76.9338 79.8041 77.23 79.3976 77.23 78.9604L77.4614 37.6203C77.4614 37.2819 77.2884 36.9542 76.9748 36.7122L69.4494 30.848C69.1272 30.5932 68.6839 30.4518 68.2168 30.4497L40.803 30.4219C40.3424 30.4219 39.9056 30.559 39.579 30.8074L32.0384 36.5794C31.7227 36.8214 31.5389 37.1512 31.5432 37.494V79.0785C31.541 79.5284 31.8481 79.9436 32.352 80.1815L32.5228 80.265C33.6408 80.7914 33.5911 82.0339 32.4363 82.509C32.0795 82.6595 31.8113 82.895 31.6643 83.1755C31.5864 83.3252 31.5454 83.4836 31.541 83.6506V95.9206C31.5432 96.6431 32.3239 97.2292 33.284 97.2229C40.524 97.1631 68.2752 96.9298 75.4416 96.8715C76.378 96.8652 77.1327 96.2869 77.1349 95.5762L77.2019 83.9997C77.2084 83.5608 76.9122 83.1519 76.4299 82.91L75.7509 82.5696C74.7172 82.0528 74.7237 80.9048 75.7531 80.3911L75.7509 80.3887ZM54.5002 40.4966C52.7767 40.4966 51.384 39.1152 51.384 37.4104C51.384 35.7056 52.7788 34.3242 54.5002 34.3242C56.2215 34.3242 57.6163 35.7056 57.6163 37.4104C57.6163 39.1152 56.2193 40.4966 54.5002 40.4966Z" fill="#FFC60C" stroke="black" stroke-width="2.23761" stroke-linecap="round" stroke-linejoin="round"/>
<path d="M72.7117 81.4557L71.0898 81.4541" stroke="black" stroke-width="2.23761" stroke-linecap="round" stroke-linejoin="round"/>
<path d="M68.0741 81.4546L39.4385 81.4238" stroke="black" stroke-width="2.23761" stroke-linecap="round" stroke-linejoin="round"/>
<path d="M37.9324 81.4215L36.3105 81.4199" stroke="black" stroke-width="2.23761" stroke-linecap="round" stroke-linejoin="round"/>
<path d="M46.2935 29.9095C44.875 27.8663 43.8672 25.5532 43.8672 23.1009C43.8629 14.793 49.0291 8.05507 55.4084 8.05078C61.7877 8.0465 66.9625 14.778 66.9691 23.0859C66.9734 31.3937 55.4279 38.136 55.4279 38.136C55.4279 38.136 54.1001 37.3628 52.3441 36.0156" stroke="black" stroke-width="2.23761" stroke-linecap="round" stroke-linejoin="round"/>
<g style="mix-blend-mode:multiply">
<path d="M38.367 53.6463C38.0686 49.4656 41.4443 46.0045 45.6459 46.1437C49.1708 46.2594 52.1031 49.0394 52.3993 52.5219C52.7864 57.0581 48.7815 60.7719 44.2338 60.0223C41.0528 59.4975 38.5962 56.8332 38.3692 53.6463H38.367ZM48.5393 52.4619C48.2517 51.1083 47.0667 50.0781 45.6741 49.9667C43.7797 49.8147 42.2292 51.2732 42.2011 53.083C42.1751 54.82 43.5656 56.2764 45.3583 56.3021C47.3478 56.332 48.974 54.5072 48.5393 52.4619ZM60.4092 46.8119C61.9359 46.8334 62.9328 48.4076 62.2884 49.7783L51.1127 73.5903C50.7624 74.3356 50.0012 74.8089 49.1708 74.7961C47.6441 74.7746 46.6471 73.2005 47.2916 71.8298L58.4673 48.0177C58.8176 47.2725 59.5788 46.7991 60.4092 46.8098V46.8119ZM57.5006 68.3837C57.5569 64.5649 60.766 61.4765 64.6218 61.5343C68.6656 61.5943 71.812 64.9226 71.5611 68.9299C71.3384 72.4852 68.3542 75.3529 64.7601 75.4707C60.7098 75.6014 57.4423 72.3887 57.5006 68.3858V68.3837ZM67.6643 69.0948C68.0557 67.0343 66.4166 65.1882 64.3082 65.3167C62.7577 65.4109 61.471 66.651 61.3282 68.1824C61.1358 70.2684 62.9523 71.9432 65.0413 71.6177C66.3517 71.4121 67.4178 70.3862 67.6643 69.0948Z" fill="#FFC60C"/>
<path d="M62.3253 49.6888C62.3253 49.6888 64.1613 45.8529 60.2472 44.6514L59.0859 46.7117L62.3253 49.6888Z" fill="#FFC60C"/>
<path d="M48.2007 74.5455C48.2007 74.5455 44.6758 73.1983 46.501 70.082L49.1479 71.2707L48.1986 74.5455H48.2007Z" fill="#FFC60C"/>
</g>
<path d="M37.2733 51.5203C36.9749 47.3396 40.3505 43.8785 44.5522 44.0177C48.077 44.1334 51.0093 46.9134 51.3057 50.3959C51.6927 54.9322 47.6878 58.6459 43.1401 57.8963C39.9591 57.3716 37.5025 54.7073 37.2754 51.5203H37.2733ZM47.4456 50.336C47.158 48.9824 45.973 47.9522 44.5803 47.8408C42.6859 47.6887 41.1354 49.1473 41.1074 50.9571C41.0814 52.694 42.4718 54.1504 44.2646 54.1761C46.2541 54.2061 47.8802 52.3813 47.4456 50.336ZM59.3155 44.6859C60.8422 44.7074 61.8391 46.2816 61.1947 47.6523L50.019 71.4643C49.6686 72.2096 48.9074 72.683 48.077 72.6702C46.5503 72.6487 45.5534 71.0745 46.1978 69.7038L57.3735 45.8918C57.7239 45.1465 58.4851 44.6731 59.3155 44.6838V44.6859ZM56.407 66.2577C56.4631 62.439 59.6723 59.3505 63.528 59.4084C67.5718 59.4684 70.7183 62.7966 70.4674 66.8039C70.2447 70.3592 67.2605 73.227 63.6664 73.3448C59.616 73.4754 56.3486 70.2628 56.407 66.2598V66.2577ZM66.5706 66.9688C66.962 64.9084 65.3229 63.0622 63.2144 63.1907C61.664 63.285 60.3773 64.525 60.2346 66.0564C60.042 68.1424 61.8585 69.8173 63.9475 69.4918C65.258 69.2861 66.3241 68.2602 66.5706 66.9688Z" fill="#0C513F" stroke="black" stroke-width="1.39851" stroke-linecap="round" stroke-linejoin="round"/>
<rect x="52.5054" y="1.92731" width="11.8326" height="12.2004" rx="5.91628" fill="#218068"/>
<rect x="52.5054" y="1.92731" width="11.8326" height="12.2004" rx="5.91628" stroke="black" stroke-width="3.41907"/>
</g>
<defs>
<clipPath id="clip0_967_34415">
<rect width="101.827" height="114.245" fill="white" transform="translate(0.107422 0.217773)"/>
</clipPath>
</defs>
</svg>
