<svg width="19" height="21" viewBox="0 0 19 21" fill="none" xmlns="http://www.w3.org/2000/svg">
<g clip-path="url(#clip0_12402_19641)">
<path d="M2.1599 11.9514C2.15923 11.3102 2.26102 10.6729 2.46143 10.0638C2.91791 8.37489 3.92226 6.88534 5.31685 5.82896L5.31847 5.82896L10.0752 1.84368L15.2706 6.19197C16.6674 7.60174 17.8358 9.51195 17.9428 11.7318C18.04 13.7292 17.374 15.6889 16.0799 17.2135C14.7858 18.7381 12.9604 19.7137 10.9738 19.9424C8.98709 20.1711 6.98778 19.6359 5.38108 18.4452C3.77438 17.2546 2.68051 15.4975 2.3212 13.5303C2.31277 13.4842 2.31688 13.4365 2.33319 13.3925C2.21768 12.9208 2.15946 12.437 2.15979 11.9513L2.1599 11.9514Z" fill="#02C27F"/>
</g>
<defs>
<clipPath id="clip0_12402_19641">
<rect width="17.502" height="20.0023" fill="white" transform="translate(18.0508 20.8105) rotate(180)"/>
</clipPath>
</defs>
</svg>
